<svg xmlns="http://www.w3.org/2000/svg" viewBox="0 0 512 512" role="img" aria-labelledby="title desc">
  <title id="title">Ojo de Horus de Amonra</title>
  <desc id="desc">Símbolo dorado del Ojo de Horus sobre fondo oscuro.</desc>
  <defs>
    <radialGradient id="bg" cx="50%" cy="42%" r="70%">
      <stop offset="0" stop-color="#403421" />
      <stop offset="1" stop-color="#171613" />
    </radialGradient>
    <linearGradient id="gold" x1="0" x2="1" y1="0" y2="1">
      <stop offset="0" stop-color="#ffe7a0" />
      <stop offset="0.48" stop-color="#d2a653" />
      <stop offset="1" stop-color="#8f652d" />
    </linearGradient>
  </defs>
  <rect width="512" height="512" rx="112" fill="url(#bg)" />
  <circle cx="256" cy="256" r="190" fill="none" stroke="#a67a36" stroke-opacity=".35" stroke-width="2" />
  <circle cx="256" cy="256" r="174" fill="none" stroke="#d2a653" stroke-opacity=".18" stroke-width="1" />
  <path
    d="M82 239c49-60 122-82 187-58 21 8 39 20 55 35 22 20 42 27 89 23-38 30-84 47-135 49-76 3-138-13-196-49Z"
    fill="none"
    stroke="url(#gold)"
    stroke-linecap="round"
    stroke-linejoin="round"
    stroke-width="18"
  />
  <path
    d="M92 243c-17 22-29 48-31 78 34-17 60-41 78-70M419 246c15 24 23 51 21 82-27-17-48-39-62-65"
    fill="none"
    stroke="url(#gold)"
    stroke-linecap="round"
    stroke-linejoin="round"
    stroke-width="13"
  />
  <path d="M143 177c55-38 128-48 198-15" fill="none" stroke="url(#gold)" stroke-linecap="round" stroke-width="18" />
  <circle cx="256" cy="239" r="45" fill="#171613" stroke="url(#gold)" stroke-width="13" />
  <circle cx="256" cy="239" r="14" fill="#f5d27b" />
  <path d="M256 284c-2 54-17 92-41 119 36-17 62-39 77-66" fill="none" stroke="url(#gold)" stroke-linecap="round" stroke-linejoin="round" stroke-width="15" />
  <path d="M218 405c20 7 38 8 54 4" fill="none" stroke="#f5d27b" stroke-linecap="round" stroke-width="8" />
</svg>
